<svg id="Layer_1" data-name="Layer 1" xmlns="http://www.w3.org/2000/svg" viewBox="0 0 512 512"><defs><style>.cls-1{fill:#2c67ff;}</style></defs><path class="cls-1" d="M103.26,170.93H53V341h50.29Z"/><path class="cls-1" d="M261.94,341.07h43.77V264c0-18-6.82-49.08-44.25-49.08-17,0-28.66,7.55-36.21,16.28-6.1-9.21-16.28-16.28-33.78-16.28-14.57,0-24.07,5.6-30.36,12.87l-13.84-12.87H117.1V341.07h44V272.55c0-9.46,5.85-14.58,14.33-14.58,8.28,0,14.08,5.12,14.08,14.58v68.52h43.77V272.55c0-9.46,5.85-14.58,14.33-14.58,8.28,0,14.32,5.12,14.32,14.58Z"/><path class="cls-1" d="M389.29,170.93H319.55V341h50.3V292.67h19.44c43,0,69.74-18.22,69.74-58.58C459,196,436.42,170.93,389.29,170.93Zm0,80.46H369.85V216.65h19.44c12.63,0,19,7.31,19,17.49C408.25,245.06,401.43,251.39,389.29,251.39Z"/></svg>